<?xml version="1.0" encoding="utf-8"?>
<!-- Generator: Adobe Illustrator 26.0.1, SVG Export Plug-In . SVG Version: 6.00 Build 0)  -->
<svg version="1.1" id="katman_1" xmlns="http://www.w3.org/2000/svg" xmlns:xlink="http://www.w3.org/1999/xlink" x="0px" y="0px"
	 viewBox="0 0 1080 1080" style="enable-background:new 0 0 1080 1080;" xml:space="preserve">
<style type="text/css">
	.st0{fill:#929092;}
	.st1{fill:#D91F16;}
</style>
<g>
	<path class="st0" d="M540,1069.44c-291.93,0-529.44-237.5-529.44-529.44C10.56,248.07,248.07,10.56,540,10.56
		s529.43,237.51,529.43,529.45C1069.44,831.94,831.93,1069.44,540,1069.44 M540,20.99c-286.18,0-519,232.83-519,519.02
		C21,826.18,253.82,1059,540,1059s519.01-232.81,519.01-518.99C1059.01,253.82,826.19,20.99,540,20.99"/>
	<path class="st0" d="M131.15,569.56l-44.81,4.29c-4.8,0.45-5.58,2.59-5.16,6.9l0.13,1.46c0.98,10.24,10.69,16.54,26.39,15.03
		c14.55-1.39,25.24-8.88,23.87-23.29L131.15,569.56z M75.56,556.25l2.84-0.28c1.2,5.62,1.77,6.4,6.23,5.96l40.17-3.82
		c4.47-0.42,4.89-1.28,4.99-7.05l2.85-0.27l2.39,24.97c2.05,21.55-9.37,32.49-24.41,33.92c-18.79,1.79-30.87-9.62-32.52-26.93
		L75.56,556.25z"/>
	<path class="st0" d="M151.5,619.01c3.43-0.75,6.86,1.17,7.7,5.08c0.85,3.83-1.43,7.16-4.85,7.92c-3.37,0.74-6.82-1.35-7.67-5.17
		C145.83,622.95,148.14,619.74,151.5,619.01 M96.53,644.05c-4.39,0.96-4.69,1.87-4.11,7.59l-2.78,0.62l-5.37-24.5l2.78-0.62
		c1.87,5.44,2.53,6.14,6.91,5.17l39.41-8.66c4.39-0.96,4.69-1.86,4.09-7.59l2.8-0.6l5.38,24.47l-2.79,0.62
		c-1.86-5.45-2.52-6.15-6.89-5.17L96.53,644.05z"/>
	<path class="st0" d="M110.92,693.67c-4.24,1.46-3.89,3.23-2.74,8.62l-2.7,0.93l-8.51-24.81l2.69-0.93
		c2.43,5.05,3.25,6.66,7.49,5.22l13.06-4.49l22.48-25.09c1.7-1.88,1.73-3.27,1.3-5.55l2.7-0.93l7.99,23.26l-2.71,0.93
		c-1.76-4.64-2.83-5.76-4.84-5.06c-1.48,0.51-2.31,1.57-3.69,3.08l-15.09,17.19l22.07,3.65c1.63,0.22,3.72,0.53,4.96,0.11
		c2.01-0.68,2.04-2.6,0.69-7.05l2.7-0.93l5.33,15.52l-2.71,0.93c-1.05-2.05-2.14-3.23-4.43-3.58l-32.84-5.56L110.92,693.67z"/>
	<path class="st0" d="M139.01,725.51l8.64,17.22l17.57-19.78L139.01,725.51z M145.15,745.54l-9.86-19.63l-9.75,0.97
		c-1.31,0.12-2.37,0.38-3.18,0.77c-2.33,1.18-2.22,3.4-0.13,7.93l-2.55,1.29l-7.55-15.03l2.55-1.28c1.32,1.9,2.49,3.14,4.86,2.94
		l48.84-4.62l4.34-5.01l5.71,11.38l-36.9,42.03c-1.56,1.79-1.22,3.55-0.53,5.66l-2.56,1.28l-11.21-22.33l2.55-1.27
		c2.31,4.22,3.95,5.68,6.29,4.52c0.79-0.42,1.63-1.1,2.52-2.1L145.15,745.54z"/>
	<path class="st0" d="M212.98,796.32c3.59-2.56,3.33-4.18-0.1-9.97l2.32-1.66l11.08,15.48l-2.32,1.67c-3.86-4.28-4.87-4.56-8.45-2
		l-39.8,28.51l-2.31-3.24l15.88-55.41l-29.62,21.22c-3.59,2.57-3.37,4.12,0.05,9.9l-2.32,1.67l-11.08-15.48l2.32-1.68
		c3.92,4.35,4.87,4.55,8.46,1.99l33.21-23.79c1.44-4.05,1.9-5.79,0.27-8.33l2.32-1.68l9.76,13.64l-13.44,46.21L212.98,796.32z"/>
	<path class="st0" d="M191.96,843.24c4.43,3.67,5.35,3.89,8.59,0.79L229.56,816c3.23-3.13,3.01-4.06-0.49-8.62l2.05-1.99
		l31.16,32.24L252,848.15l-1.64-1.7c3.63-9.06,3.79-12.54-0.75-17.22l-7.95-8.23l-16.32,15.76l7.2,7.47
		c2.5,2.58,4.99,1.88,9.32-1.17l1.98,2.06l-13.34,12.87l-1.98-2.03c3.19-4.22,3.93-6.63,1.43-9.22l-7.21-7.47l-13.62,13.18
		c-3.17,3.07-2.46,5.44,1.06,9.09l3.52,3.64c4.59,4.75,8.59,4.08,19.39,1.25l1.98,2.07l-13.5,9.52l-31.67-32.77L191.96,843.24z"/>
	<path class="st0" d="M309.89,876.11l-10.66,15.63l-2.06-1.6c3.37-12.81,4.14-16.99-0.82-20.86l-3.4-2.67l-28.43,36.38
		c-2.78,3.55-1.5,4.85,2.47,8.77l-1.76,2.25l-20.99-16.38l1.76-2.26c4.72,2.85,6.35,3.81,9.11,0.27l28.43-36.37l-3.41-2.68
		c-4.96-3.87-8.82-2.1-20.5,4.23l-2.06-1.63l12.58-14.09L309.89,876.11z"/>
	<path class="st0" d="M345.4,885.42c1.67-3.1,5.38-4.42,8.89-2.52c3.45,1.88,4.48,5.78,2.82,8.86c-1.64,3.01-5.48,4.27-8.93,2.41
		C344.67,892.27,343.76,888.43,345.4,885.42 M328.38,943.35c-2.14,3.96-1.65,4.77,3.05,8.08l-1.36,2.51l-22.04-11.95l1.36-2.51
		c5.35,2.15,6.29,2.1,8.44-1.86l19.23-35.46c2.14-3.94,1.65-4.76-3.06-8.05l1.35-2.52l22.05,11.96l-1.36,2.5
		c-5.33-2.14-6.3-2.1-8.44,1.83L328.38,943.35z"/>
	<path class="st0" d="M347.33,979.62c5.43,2.28,9.06,1.84,9.94-0.28c0.92-2.19-1.06-3.8-5-5.62l5.95-6.01
		c-6-3.03-10.39-7.16-12.37-10.9l4.68-13.2l3.17,1.33c-1.91,9.74,0.46,17.62,8.08,20.8c6.1,2.54,11.34,0.81,13.5-4.39
		c2.32-5.58,0.05-9.27-7.61-16.35c-7.62-6.81-11.66-13.27-7.96-22.17c3.83-9.2,13.52-12.69,24.08-8.31
		c6.34,2.65,11.27,6.74,13.85,10.99l-4.68,11.24l-2.79-1.16c1.89-8.59-0.46-15.06-7.63-18.04c-5.28-2.19-9.95-0.33-11.93,4.42
		c-2.2,5.28-0.24,8.65,6.61,14.97c8.6,7.83,13.08,14.28,9.13,23.79c-4.39,10.57-15.34,12.39-25.81,8.03l-2.05,2.16
		c4.68,1.95,6.93,5.26,5.33,9.11c-2.27,5.44-9.39,5.31-16.92,2.17L347.33,979.62z"/>
	<path class="st0" d="M415.57,977.83c-1.16,4.27,0.5,5.9,5.39,7.24l3.4,0.93c5.98,1.65,9.7-1.42,18.15-10.03l2.76,0.75l-7.43,16.35
		l-42.48-11.61l0.74-2.76c5.69,0.88,6.61,0.62,7.79-3.72l10.65-38.93c1.19-4.33,0.53-5.02-4.81-7.16l0.75-2.75l24.2,6.61l-0.76,2.75
		c-5.68-0.87-6.6-0.62-7.79,3.72L415.57,977.83z"/>
	<path class="st0" d="M455.42,993.88c5.76,0.1,6.62-0.27,7.21-4.73l5.29-39.98c0.58-4.45-0.15-5.05-5.75-6.44l0.37-2.83l44.44,5.88
		l-1.52,14.61l-2.34-0.31c-2.81-9.35-4.81-12.16-11.3-13.02l-11.33-1.5l-2.97,22.51l10.27,1.36c3.57,0.47,5.08-1.63,6.57-6.71
		l2.84,0.38l-2.43,18.37l-2.82-0.38c-0.14-5.29-1.05-7.63-4.61-8.09l-10.28-1.37l-2.49,18.79c-0.58,4.36,1.46,5.77,6.47,6.44
		l5.03,0.67c6.56,0.86,9.26-2.16,15.95-11.07l2.84,0.37l-4.66,15.85l-45.16-5.97L455.42,993.88z"/>
	<path class="st0" d="M535.99,949.98l0.42,26.04l3.93-0.05c8.57-0.14,12.75-5.11,12.6-13.59c-0.12-7.37-4.53-12.61-13.19-12.47
		L535.99,949.98z M536.73,995.48c0.06,4.49,0.89,4.97,6.62,5.53l0.05,2.85l-25.08,0.42l-0.05-2.87c5.71-0.75,6.52-1.24,6.44-5.74
		l-0.65-40.36c-0.08-4.48-0.9-4.96-6.63-5.51l-0.03-2.86l26.05-0.42c13.55-0.22,21.51,6.04,21.67,15.59
		c0.13,8.91-6.98,13.67-13.08,15.32l12.59,16.54c3.76,4.94,5.84,6.54,10.1,6.54l0.03,2.85l-15.5,0.27
		c-2.41-1.68-4.49-4.27-7.01-7.89l-11.55-16.31l-4.23,0.06L536.73,995.48z"/>
	<path class="st0" d="M584.6,933.88c-0.44-3.48,1.77-6.72,5.73-7.23c3.9-0.51,7.03,2.06,7.47,5.53c0.44,3.41-1.92,6.69-5.83,7.18
		C588,939.87,585.04,937.29,584.6,933.88 M604.68,990.86c0.59,4.44,1.44,4.84,7.2,4.75l0.36,2.84l-24.88,3.2l-0.35-2.84
		c5.59-1.37,6.33-1.95,5.77-6.42l-5.15-40.02c-0.58-4.45-1.44-4.84-7.21-4.75l-0.35-2.85l24.87-3.18l0.38,2.83
		c-5.59,1.37-6.35,1.97-5.78,6.43L604.68,990.86z"/>
	<path class="st0" d="M660.63,959.24l5.51,18.14c1.26,4.22,3.4,4.78,8.09,3.35l0.77-0.24c7.03-2.12,9.55-7.32,7.21-15.06
		c-2.1-6.96-7.43-10.46-16.18-7.8L660.63,959.24z M653,934.08l6.59,21.73l3.83-1.16c7.66-2.32,10.19-7.2,7.96-14.54
		c-2.1-6.94-7.35-9.38-14.61-7.16L653,934.08z M650.94,991.21l-0.84-2.74c5.28-2.29,5.93-2.98,4.62-7.27l-11.69-38.62
		c-1.3-4.31-2.22-4.53-7.89-3.49l-0.83-2.74l25.26-7.65c12.03-3.65,20.23-1.11,22.95,7.89c2.39,7.89-3.65,14.15-10.81,17.27
		c10.48-2.83,19.43-0.09,21.97,8.28c2.87,9.46-2.71,16.95-16.24,21.06L650.94,991.21z"/>
	<path class="st0" d="M715.44,945.49l17.44-8.21l-19.34-18.07L715.44,945.49z M735.64,939.85l-19.9,9.37l0.73,9.77
		c0.08,1.33,0.31,2.39,0.7,3.21c1.12,2.36,3.34,2.3,7.93,0.31l1.22,2.61l-15.21,7.16l-1.24-2.58c1.93-1.27,3.21-2.41,3.07-4.78
		l-3.39-48.99l-4.9-4.46l11.53-5.43l41.11,37.97c1.75,1.62,3.51,1.33,5.65,0.68l1.22,2.59l-22.61,10.66l-1.23-2.59
		c4.3-2.2,5.78-3.8,4.68-6.17c-0.38-0.82-1.05-1.67-2.02-2.57L735.64,939.85z"/>
	<path class="st0" d="M793.97,947.23c4.93-3.2,6.61-6.45,5.37-8.37c-1.29-1.98-3.75-1.26-7.47,0.97l-1.62-8.31
		c-5.87,3.25-11.75,4.53-15.95,4.07l-8.25-11.3l2.87-1.88c6.95,7.07,14.81,9.55,21.71,5.06c5.55-3.63,7.06-8.89,4-13.62
		c-3.3-5.06-7.64-5.27-17.8-2.93c-9.91,2.46-17.51,2.15-22.77-5.91c-5.44-8.36-2.85-18.31,6.72-24.56
		c5.74-3.74,11.9-5.51,16.86-5.22l6.64,10.18l-2.54,1.65c-6.01-6.4-12.69-8.09-19.18-3.87c-4.79,3.13-5.89,8.03-3.07,12.34
		c3.12,4.8,7.01,5.07,16.06,2.99c11.31-2.7,19.18-2.75,24.8,5.87c6.23,9.59,1.57,19.63-7.93,25.83l0.62,2.89
		c4.23-2.76,8.25-2.74,10.53,0.76c3.2,4.92-0.91,10.72-7.76,15.18L793.97,947.23z"/>
	<path class="st0" d="M853.06,871c5.36,1.2,7.27,1.16,10.58-1.36l1.88,2.14L853.71,882c-3.08,0.06-7.02-0.63-10.78-1.59l-23.75-5.84
		l1.52-28.74c0.11-1.62,0.04-3.07-0.71-3.93c-0.91-1.05-2.14-0.62-5.96,2.34l-1.88-2.16l13.85-11.97l1.88,2.16
		c-2.56,2.42-3.03,4.01-3.21,7.54l-1.11,24.08L853.06,871z M831.39,890.04c2.94,3.4,3.89,3.25,8.64,0l1.87,2.15l-18.98,16.42
		l-1.88-2.17c3.91-4.25,4.2-5.13,1.27-8.54l-26.41-30.53c-2.94-3.4-3.88-3.25-8.63,0l-1.87-2.16l18.97-16.42l1.88,2.17
		c-3.9,4.22-4.2,5.13-1.27,8.55L831.39,890.04z"/>
	<path class="st0" d="M867.17,836.76l12.5-14.66l-25.07-8.51L867.17,836.76z M883.25,823.32l-14.26,16.71l4.69,8.62
		c0.61,1.16,1.25,2.03,1.94,2.63c1.99,1.69,3.99,0.72,7.35-2.96l2.18,1.86l-10.92,12.8l-2.18-1.86c1.24-1.95,1.92-3.52,0.83-5.62
		l-23.26-43.25l-6.31-2.06l8.27-9.71l53.11,17.69c2.27,0.75,3.75-0.24,5.43-1.7l2.18,1.86l-16.22,19.03l-2.19-1.86
		c3.02-3.77,3.72-5.85,1.72-7.55c-0.67-0.6-1.65-1.08-2.9-1.53L883.25,823.32z"/>
	<path class="st0" d="M903.6,741.19c-3.76-2.3-5.16-1.41-9.13,3.98l-2.45-1.5l9.94-16.22l2.45,1.49c-2.44,5.22-2.3,6.26,1.46,8.55
		l41.72,25.56l-2.09,3.43l-57.22,6.9l31.08,19.04c3.76,2.29,5.1,1.51,9.11-3.92l2.43,1.5l-9.95,16.23l-2.44-1.5
		c2.48-5.28,2.3-6.24-1.46-8.56l-34.82-21.34c-4.28,0.27-6.05,0.51-7.78,3.01l-2.43-1.49l8.73-14.29l47.8-5.59L903.6,741.19z"/>
	<path class="st0" d="M956.84,722.86c4.05,1.74,5.9,0.31,7.9-4.34l1.38-3.23c2.43-5.7-0.08-9.81-7.44-19.35l1.12-2.63l15.17,9.61
		l-17.3,40.47l-2.64-1.13c1.66-5.51,1.52-6.46-2.61-8.21l-37.09-15.87c-4.13-1.77-4.9-1.22-7.76,3.78l-2.62-1.12l9.86-23.06
		l2.62,1.12c-1.63,5.52-1.51,6.47,2.62,8.24L956.84,722.86z"/>
	<path class="st0" d="M977.5,666.91c4.3,1.31,5,0.68,7.28-4.61l2.74,0.83l-7.29,24l-2.73-0.84c1.04-5.66,0.8-6.59-3.5-7.89
		l-38.62-11.72c-4.3-1.33-5-0.68-7.28,4.6l-2.74-0.84l7.29-23.99l2.73,0.84c-1.04,5.66-0.79,6.59,3.51,7.88L977.5,666.91z"/>
	<path class="st0" d="M980.5,607.75c-4.42-0.8-5.12-0.17-6.76,5.43l-2.74-0.48l4.26-23.97l2.74,0.48c-0.35,5.75,0.07,6.66,4.48,7.45
		l13.37,2.36c2.44,5.82,3.38,13.2,1.9,21.49c-3.17,17.86-17,25.69-32.61,22.9c-18.67-3.32-28.18-17.93-25.28-34.27
		c1.28-7.16,3.97-12.98,7.86-17.11l13.04,2.23l-0.55,3.05c-9.66,0.29-15.57,4.05-16.99,12.09c-2.07,11.66,8.2,18.71,21.96,21.16
		c13.98,2.5,27.4-0.61,29.45-12.12c0.55-3.13,0.54-5.87-0.76-8.33L980.5,607.75z M922.74,617.64l0.53-2.99
		c5.03,0.16,7.14-3.29,7.89-7.54c0.74-4.2-0.06-8.16-4.82-9.84l0.53-2.96c8.21,1.46,11.75,6.72,10.48,13.9
		C936.08,615.44,930.95,619.1,922.74,617.64"/>
	<path class="st0" d="M994.95,560.62c4.48,0.27,5.02-0.53,5.99-6.2l2.85,0.17l-1.44,25.03l-2.85-0.15
		c-0.32-5.75-0.76-6.59-5.25-6.86l-40.27-2.32c-4.49-0.25-5.03,0.54-6,6.21l-2.85-0.18l1.44-25.03l2.85,0.17
		c0.33,5.75,0.77,6.59,5.25,6.85L994.95,560.62z"/>
	<path class="st0" d="M540,1045.55c-278.77,0-505.56-226.79-505.56-505.55C34.44,261.24,261.23,34.43,540,34.43
		c278.78,0,505.56,226.8,505.56,505.57C1045.56,818.76,818.78,1045.55,540,1045.55 M540,37.91c-276.84,0-502.08,225.24-502.08,502.1
		c0,276.83,225.24,502.08,502.08,502.08c276.86,0,502.09-225.24,502.09-502.08C1042.09,263.15,816.86,37.91,540,37.91"/>
	<path class="st0" d="M540,1045.55c-278.77,0-505.56-226.79-505.56-505.55C34.44,261.24,261.23,34.43,540,34.43
		c278.78,0,505.56,226.8,505.56,505.57C1045.56,818.76,818.78,1045.55,540,1045.55 M540,37.91c-276.84,0-502.08,225.24-502.08,502.1
		c0,276.83,225.24,502.08,502.08,502.08c276.86,0,502.09-225.24,502.09-502.08C1042.09,263.15,816.86,37.91,540,37.91"/>
	<path class="st0" d="M954.04,504.5c1.48-0.12,1.67,0.18,2.08,2.05l0.77-0.07l-0.66-7.53l-0.79,0.06c-0.07,1.91-0.2,2.24-1.67,2.38
		l-13.17,1.17c-1.48,0.14-1.67-0.17-2.08-2.05l-0.78,0.07l0.66,7.54l0.8-0.07c0.06-1.92,0.2-2.24,1.67-2.38L954.04,504.5z
		 M936.52,477.76c-0.82-0.73-1.18-1.84-1.36-3.04c-0.55-4.03,3.33-6.44,7.96-7.1c4.52-0.64,8.48,0.64,9.05,4.68
		c0.38,2.69-1,4.51-3.93,5.54l0.11,0.83l4.08-0.57c0.76-1.65,1-3.71,0.68-6c-0.73-5.2-5.1-8.56-11.16-7.71
		c-5.05,0.71-8.58,4.54-7.79,10.12c0.38,2.65,1.41,4.67,2.75,6.19l4.36-0.61c1.46-0.2,1.65,0.09,2.14,1.94l0.81-0.11l-1.03-7.33
		l-0.8,0.1c0.03,1.92-0.07,2.26-1.53,2.47L936.52,477.76z M954.01,472.07c0.32,2.29,1.88,3.53,4.63,3.14l-0.1-0.78
		c-1.8-0.01-2.5-1.15-2.71-2.62c-0.18-1.48,0.16-2.75,1.88-3.26l-0.11-0.8C954.85,468.15,953.69,469.8,954.01,472.07 M944.1,442.35
		c1.44-0.32,1.68-0.04,2.31,1.76l0.77-0.17l-1.61-7.39l-0.76,0.17c0.16,1.91,0.08,2.26-1.36,2.57l-12.95,2.81
		c-1.44,0.32-1.66,0.04-2.3-1.77l-0.77,0.17l1.6,7.39l0.77-0.18c-0.18-1.9-0.09-2.24,1.37-2.55L944.1,442.35z M934.86,409.57
		c1.43-0.43,1.66-0.17,2.43,1.6l0.76-0.23l-2.15-7.25l-0.76,0.23c0.32,1.9,0.25,2.25-1.16,2.67l-12.69,3.77
		c-1.42,0.43-1.67,0.16-2.43-1.59l-0.76,0.22l3.91,13.16l5.45-0.7l-0.22-0.73c-3.38-0.7-5.01-1.16-5.62-3.2l-0.39-1.31
		c-0.5-1.68-0.34-2.47,1.03-2.87L934.86,409.57z M914.81,386.5l8.42-14.59l-1.77-4.33l-0.73,0.3c0.31,0.98,0.09,1.47-0.66,2.72
		l-12.45,5.09c-1.37,0.55-1.66,0.32-2.62-1.37l-0.72,0.3l2.29,5.61l0.72-0.3c-0.62-2.12-0.6-2.59,0.78-3.15l11.34-4.63l-9.46,16.58
		l0.37,0.87l14.76-6.02c1.37-0.57,1.66-0.35,2.61,1.35l0.74-0.3l-2.3-5.61l-0.74,0.3c0.65,2.12,0.62,2.6-0.76,3.15L914.81,386.5z
		 M904.97,341.63l-5.78,6.85l-3.08-5.83L904.97,341.63z M896.22,352.02c-0.28,0.31-0.55,0.55-0.83,0.7
		c-0.73,0.38-1.28-0.05-2.11-1.5l-0.7,0.38l3.45,6.52l0.71-0.37c-0.24-0.72-0.35-1.29,0.13-1.84l11.78-14.05l-1.56-2.96l-1.26,1.58
		l-16.16,1.8c-0.76,0.09-1.14-0.34-1.6-0.92l-0.7,0.36l2.49,4.71l0.7-0.38c-0.73-1.56-0.77-2.25-0.05-2.64
		c0.25-0.13,0.63-0.21,1.04-0.25l3.51-0.42l3.44,6.53L896.22,352.02z M885.01,307.75c1.26-0.78,1.56-0.61,2.76,0.89l0.68-0.43
		l-4-6.41l-0.67,0.42c0.81,1.74,0.84,2.09-0.42,2.88l-11.22,7.01c-1.27,0.78-1.56,0.6-2.78-0.9l-0.67,0.42l4.01,6.43l0.66-0.43
		c-0.81-1.74-0.84-2.1,0.42-2.87L885.01,307.75z M882.03,313.18l8.13,1.69c1.13,0.26,1.68,0.44,2.37,1.39l0.66-0.42l-3.02-4.84
		l-0.67,0.42c0.77,1.48,0.88,1.85,0.5,2.1c-0.28,0.18-0.75,0.12-1.19,0.02l-9.35-1.94l-3,7.83c-0.44,1.16-0.8,2.3-0.88,3.24
		l2.32,3.73l0.66-0.42c-0.7-1.28-0.66-1.82,0.05-3.77L882.03,313.18z M847.38,293.65c1.6,2.1,3.48,3.2,4.96,2.07
		c1.06-0.83,0.93-2.05-0.05-3.36l1-0.3c2.11,2.77,5.39,3.93,8.17,1.8c2.48-1.9,2.33-4.31,1.29-8.02c-0.87-3-0.84-4.22,0.71-5.41
		c1.39-1.06,3.11-0.87,4.31,0.7c1.55,2.02,1.24,4.22-0.85,6.35l0.54,0.68l3.12-2.39c-0.03-1.63-0.75-3.52-2.06-5.22
		c-2.18-2.83-5.27-3.28-7.63-1.49c-2.47,1.89-2.23,4.28-1.38,7.26c0.99,3.45,1.04,4.88-0.63,6.14c-1.52,1.18-3.44,0.86-4.85-0.98
		c-1.63-2.12-1.06-4.65,1.19-7.14l-0.57-0.74l-3.47,2.91c-0.05,1.35,0.5,3.19,1.68,4.96l-2.54,0.7c0.86,1.21,1.11,1.99,0.5,2.46
		c-0.64,0.48-1.77-0.04-2.93-1.56L847.38,293.65z M842.64,255.29l-3.98,8.03l-4.38-4.93L842.64,255.29z M836.6,267.47
		c-0.19,0.39-0.4,0.67-0.63,0.87c-0.61,0.55-1.26,0.27-2.4-0.94l-0.59,0.52l4.9,5.53l0.59-0.53c-0.4-0.64-0.64-1.17-0.29-1.82
		l8.1-16.46l-2.22-2.49l-0.86,1.82l-15.26,5.59c-0.72,0.27-1.18-0.06-1.77-0.53l-0.58,0.54l3.51,3.97l0.61-0.53
		c-1.1-1.34-1.29-2.01-0.68-2.56c0.22-0.19,0.56-0.36,0.95-0.48l3.32-1.24l4.91,5.52L836.6,267.47z M807.52,242.9
		c3.18,2.96,6.25,3.18,8.33,0.93c1.91-2.05,1.27-4.96-1.19-7.44c2.01,1.49,4.8,2.19,6.61,0.23c2.08-2.22,1.47-4.91-1.48-7.67
		l-5.8-5.39l-0.53,0.58c1.23,1.47,1.35,1.81,0.34,2.9l-9.01,9.68c-1.01,1.08-1.35,0.99-2.91-0.15l-0.54,0.59L807.52,242.9z
		 M818.46,229.01c1.95,1.82,2.1,3.8,0.49,5.52c-1.73,1.87-3.58,1.91-5.63,0l-1.22-1.13l5.15-5.52L818.46,229.01z M813.05,235.65
		c2.29,2.13,2.09,4.29,0.47,6.03c-1.73,1.88-3.69,2.1-5.66,0.26l-0.22-0.2c-1.26-1.18-1.51-1.9-0.54-2.95l4.32-4.64L813.05,235.65z
		 M782.19,211.79l1.27,0.98l-0.21,6.89c-0.05,1.36-0.05,2.4,0.25,3.28l3.51,2.71l0.49-0.63c-1.09-0.92-1.41-1.82-1.38-3.86
		l0.02-6.93c1.83,0.87,4.78,1.21,6.6-1.17c1.83-2.39,1.24-5.48-2.32-8.2l-6.08-4.68l-0.49,0.63c1.37,1.35,1.54,1.68,0.63,2.85
		l-8.05,10.49c-0.91,1.18-1.26,1.11-2.92,0.15l-0.47,0.62l6,4.6l0.48-0.63c-1.37-1.35-1.51-1.66-0.62-2.84L782.19,211.79z
		 M789.16,205.12c2.4,1.83,2.41,4.13,1.01,5.96c-1.71,2.23-3.81,2.69-6.16,0.89l-1.24-0.95l5.22-6.81L789.16,205.12z M755.39,184.09
		c0.82-1.24,1.18-1.19,2.92-0.33l0.43-0.66l-6.34-4.18l-0.42,0.66c1.46,1.25,1.66,1.57,0.84,2.8l-5.22,7.94
		c-2.52,3.8-1.35,7.09,2.37,9.54c3.15,2.08,6.83,1.97,9.29-1.77l5.25-7.98c0.82-1.23,1.22-1.2,2.94-0.35l0.42-0.66l-5.01-3.31
		l-0.43,0.65c1.71,1.38,1.91,1.77,1.09,3l-4.99,7.59c-2.16,3.24-4.76,3.46-7.45,1.68c-2.41-1.59-2.62-4.1-0.8-6.88L755.39,184.09z
		 M720.76,165.29c0.7-1.32,1.05-1.3,2.85-0.62l0.35-0.7l-6.69-3.53l-0.37,0.7c1.58,1.1,1.78,1.38,1.09,2.7l-6.18,11.7
		c-0.69,1.32-1.04,1.3-2.85,0.63l-0.35,0.7l6.69,3.53l0.36-0.7c-1.57-1.1-1.78-1.38-1.08-2.7l2.96-5.62l7.67,4.05l-2.96,5.63
		c-0.68,1.3-1.04,1.3-2.84,0.62l-0.38,0.7l6.69,3.53l0.36-0.7c-1.56-1.1-1.77-1.39-1.07-2.7l6.17-11.69
		c0.7-1.31,1.05-1.31,2.85-0.62l0.35-0.7l-6.68-3.53l-0.38,0.7c1.58,1.1,1.79,1.38,1.09,2.69l-2.71,5.13l-7.68-4.05L720.76,165.29z
		 M687.6,164.91c-0.09,0.2-0.2,0.53-0.23,0.63c-0.47,1.18-1.14,1.19-2.93,0.64l-0.29,0.73l7.23,2.95l0.29-0.74
		c-1.28-0.63-1.7-1.07-1.37-2.31l3.6-13.05c0.52-1.31,1.16-1.49,2.76-0.95l0.31-0.73l-4.74-1.94c-0.28,0.54-0.54,0.83-0.97,1.3
		l-8.7,9.78l0.27-13.24c0.02-0.62,0.03-1.01,0.22-1.6l-4.8-1.96l-0.3,0.74c1.52,0.73,1.88,1.33,1.34,2.63l-6.59,11.82
		c-0.6,1.11-1.22,1.15-2.61,0.69l-0.29,0.74l5.38,2.19l0.3-0.73c-1.66-0.85-2.13-1.32-1.65-2.5c0.04-0.09,0.21-0.39,0.31-0.59
		l5.56-10.13l-0.31,15.68l0.84,0.35l10.42-11.55L687.6,164.91z M644.65,137.32c0.43-1.41,0.78-1.48,2.7-1.15l0.23-0.77l-7.28-2.16
		l-0.21,0.76c1.75,0.77,2.03,1.02,1.61,2.45l-2.72,9.1c-1.28,4.37,0.76,7.18,5.02,8.44c3.63,1.09,7.13-0.08,8.4-4.36l2.72-9.15
		c0.42-1.42,0.81-1.51,2.7-1.19l0.24-0.76l-5.77-1.72l-0.22,0.77c2.06,0.83,2.35,1.13,1.92,2.55l-2.59,8.71
		c-1.12,3.72-3.56,4.69-6.65,3.76c-2.77-0.82-3.69-3.17-2.74-6.36L644.65,137.32z M614.42,127.92c-5.04-0.96-9.59,2.12-10.75,8.1
		c-1.02,5.33,1.74,9.62,7.25,10.68c2.4,0.45,4.37,0.27,6.08-0.36l1.28-4.66l-0.91-0.17c-1.56,3.55-3.5,4.74-6.1,4.23
		c-3.78-0.71-5.1-4.96-4.16-9.82c0.84-4.44,3.37-7.76,7.14-7.04c2.61,0.51,3.93,2.39,3.96,5.49l0.84,0.15l0.73-3.98
		C618.5,129.29,616.69,128.35,614.42,127.92 M559.68,120.66c1.13,0.07,1.96-0.73,2.03-1.75c0.04-1.01-0.68-1.9-1.79-1.97
		c-1.08-0.07-1.92,0.72-1.99,1.73C557.87,119.7,558.61,120.59,559.68,120.66 M561.02,124.77c0.09-1.48,0.42-1.62,2.33-1.73l0.06-0.8
		l-7.55-0.47l-0.05,0.8c1.89,0.36,2.2,0.53,2.11,2.01l-0.84,13.21c-0.09,1.47-0.42,1.61-2.34,1.73l-0.05,0.79l7.54,0.48l0.05-0.78
		c-1.88-0.37-2.18-0.54-2.09-2.02L561.02,124.77z M519.82,121.84l-0.32,5.79l0.71-0.01c1.5-3.83,2.07-4.95,4.27-4.97l1.72-0.02
		l0.19,15.11c0.02,1.48-0.67,1.57-2.49,1.84l0.01,0.79l8.1-0.11l-0.01-0.8c-1.8-0.21-2.49-0.28-2.51-1.76l-0.2-15.1l1.7-0.02
		c2.2-0.03,2.8,1.07,4.43,4.86l0.69-0.01l-0.47-5.79L519.82,121.84z M486.59,143.33l14.34-1.28l0.38-5.05l-0.76,0.07
		c-1.44,3.08-2.18,4.27-4.17,4.44l-2.06,0.18c-1.74,0.16-2.52-0.15-2.64-1.58l-0.57-6.29l3.81-0.34c1.15-0.1,1.65,0.6,2.06,2.2
		l0.81-0.07l-0.51-5.77l-0.82,0.08c-0.11,1.65-0.46,2.46-1.63,2.56l-3.79,0.34l-0.67-7.52l4.23-0.38c1.96-0.17,2.84,0.52,4.34,3.26
		l0.63-0.06l-0.53-4.54l-14.08,1.24l0.07,0.8c1.92,0.06,2.25,0.2,2.39,1.66l1.16,13.19c0.14,1.47-0.17,1.66-2.05,2.07L486.59,143.33
		z M460.33,140.62l3.41-10.28c0.25-0.69,0.67-1,1.35-1.26l-0.15-0.78l-5.17,1l0.15,0.77c1.67-0.27,2.24-0.15,2.36,0.53
		c0.09,0.43-0.08,1.01-0.2,1.46l-2.4,7.3l-5.06-5.92c-0.39-0.44-0.67-0.77-0.74-1.21c-0.13-0.67,0.31-1.01,2-1.38l-0.16-0.78
		l-7.17,1.38l0.15,0.79c0.76-0.01,1.2,0.06,1.71,0.67l7.02,8.29l0.88,4.65c0.29,1.47-0.4,1.68-2.13,2.24l0.16,0.78l7.81-1.49
		L464,146.6c-1.81,0.1-2.5,0.16-2.78-1.3L460.33,140.62z M425.37,136.1c1.07-0.3,1.6-1.31,1.34-2.31c-0.26-0.97-1.24-1.57-2.32-1.29
		c-1.04,0.28-1.59,1.31-1.32,2.28C423.33,135.77,424.32,136.38,425.37,136.1 M427.95,139.56c-0.39-1.43-0.13-1.66,1.66-2.39
		l-0.22-0.76l-7.3,1.97l0.21,0.77c1.9-0.27,2.25-0.2,2.64,1.22l3.46,12.78c0.39,1.43,0.12,1.65-1.65,2.39l0.21,0.76l7.3-1.97
		l-0.21-0.77c-1.9,0.27-2.26,0.21-2.63-1.22L427.95,139.56z M395.25,158.47l1.52-0.53l5.65,3.94c1.12,0.79,2,1.34,2.9,1.59
		l4.19-1.48l-0.27-0.73c-1.36,0.42-2.29,0.18-3.97-0.96l-5.79-3.79c1.73-1.07,3.61-3.36,2.61-6.17c-1-2.84-3.92-4.03-8.14-2.54
		l-7.23,2.54l0.27,0.75c1.88-0.4,2.23-0.36,2.71,1.03l4.39,12.49c0.5,1.41,0.25,1.65-1.47,2.51l0.27,0.75l7.13-2.52l-0.26-0.74
		c-1.88,0.41-2.23,0.36-2.73-1.04L395.25,158.47z M393.47,148.97c2.84-1,4.77,0.23,5.55,2.43c0.92,2.64,0.17,4.64-2.62,5.64
		l-1.47,0.51l-2.86-8.08L393.47,148.97z M357.26,166.46c-0.63-1.34-0.42-1.63,1.24-2.65l-0.33-0.72l-6.89,3.21l0.34,0.71
		c1.82-0.59,2.19-0.59,2.83,0.75l4.02,8.61c1.92,4.12,5.33,4.86,9.36,2.97c3.43-1.59,5.27-4.79,3.37-8.84l-4.04-8.65
		c-0.62-1.34-0.4-1.66,1.24-2.68l-0.34-0.71l-5.45,2.54l0.34,0.73c2.08-0.74,2.52-0.7,3.13,0.63l3.84,8.22
		c1.65,3.53,0.46,5.87-2.46,7.23c-2.62,1.22-4.87,0.08-6.28-2.94L357.26,166.46z M322.95,185.04c-0.73-1.3-0.53-1.59,1.02-2.73
		l-0.39-0.69l-6.6,3.69l0.38,0.7c1.77-0.72,2.13-0.74,2.85,0.54l6.45,11.56c0.72,1.29,0.53,1.59-1.02,2.72l0.38,0.68l6.61-3.69
		l-0.4-0.69c-1.78,0.73-2.13,0.74-2.85-0.55l-3.11-5.55l7.58-4.23l3.1,5.55c0.72,1.29,0.53,1.58-1.02,2.72l0.38,0.68l6.6-3.69
		l-0.39-0.68c-1.77,0.73-2.14,0.75-2.86-0.56l-6.45-11.54c-0.71-1.29-0.52-1.59,1.02-2.73l-0.38-0.68l-6.6,3.68l0.38,0.68
		c1.78-0.71,2.14-0.72,2.86,0.57l2.83,5.06l-7.57,4.24L322.95,185.04z M304.66,212.93c0.12,0.17,0.35,0.43,0.41,0.51
		c0.75,1.03,0.41,1.59-0.99,2.83l0.47,0.64l6.3-4.61l-0.46-0.63c-1.22,0.76-1.8,0.89-2.68-0.04l-9.22-9.91
		c-0.83-1.13-0.66-1.79,0.65-2.86l-0.47-0.65l-4.13,3.03c0.31,0.52,0.42,0.89,0.59,1.49l3.76,12.56l-11.12-7.19
		c-0.51-0.34-0.83-0.55-1.25-1.02l-4.19,3.06l0.47,0.64c1.42-0.91,2.14-0.9,2.97,0.24l6.59,11.83c0.62,1.08,0.33,1.62-0.78,2.57
		l0.45,0.63l4.71-3.43l-0.46-0.64c-1.59,0.96-2.24,1.1-2.99,0.09c-0.05-0.09-0.25-0.39-0.35-0.57l-5.7-10.07l13.19,8.51l0.75-0.55
		l-4.37-14.93L304.66,212.93z M258.21,234.36c-0.99-1.1-0.85-1.44,0.43-2.9l-0.53-0.59l-5.68,5.05l0.54,0.59
		c1.58-1.09,1.94-1.2,2.92-0.11l6.3,7.11c3.03,3.4,6.51,3.14,9.84,0.2c2.83-2.52,3.68-6.09,0.7-9.43l-6.34-7.16
		c-0.98-1.1-0.85-1.47,0.42-2.91l-0.53-0.59l-4.48,3.98l0.52,0.6c1.79-1.3,2.21-1.39,3.2-0.29l6.02,6.79
		c2.58,2.91,2.12,5.48-0.3,7.63c-2.16,1.91-4.64,1.46-6.86-1.03L258.21,234.36z M234.1,254.17c-3.59,3.67-3.52,9.17,0.83,13.43
		c3.89,3.79,8.99,3.86,12.91-0.16c1.69-1.74,2.63-3.5,3.05-5.29l-3.18-3.63l-0.66,0.66c2.12,3.26,2.04,5.55,0.18,7.44
		c-2.68,2.75-6.94,1.5-10.48-1.95c-3.24-3.15-4.62-7.09-1.94-9.83c1.85-1.91,4.15-1.98,6.76-0.3l0.59-0.61l-2.91-2.81
		C237.49,251.52,235.7,252.53,234.1,254.17 M207.68,317.32l8.46-11.64l-3.54-3.61l-0.47,0.63c1.38,3.1,1.78,4.44,0.6,6.06
		l-1.22,1.67c-1.03,1.41-1.77,1.79-2.92,0.95l-5.1-3.73l2.24-3.07c0.69-0.94,1.54-0.85,3.02-0.09l0.48-0.66l-4.68-3.41l-0.49,0.66
		c1.17,1.19,1.54,1.98,0.86,2.92l-2.26,3.08l-6.09-4.44l2.5-3.45c1.16-1.58,2.27-1.79,5.31-1.11l0.37-0.52l-3.77-2.58l-8.33,11.42
		l0.65,0.47c1.31-1.41,1.61-1.58,2.82-0.69l10.7,7.8c1.19,0.86,1.13,1.21,0.21,2.9L207.68,317.32z M188.13,334.91l-5.22-9.5
		c-0.34-0.65-0.27-1.17-0.01-1.84l-0.65-0.42l-2.8,4.46l0.68,0.42c0.94-1.4,1.39-1.74,1.98-1.38c0.39,0.24,0.69,0.75,0.94,1.14
		l3.73,6.74l-7.79-0.32c-0.59-0.02-1-0.03-1.39-0.27c-0.58-0.36-0.52-0.92,0.35-2.4l-0.67-0.42l-3.86,6.19l0.67,0.42
		c0.51-0.55,0.86-0.84,1.67-0.8l10.85,0.5l4.02,2.52c1.26,0.78,0.95,1.43,0.21,3.08l0.67,0.41l4.21-6.74l-0.67-0.43
		c-1.16,1.4-1.58,1.94-2.84,1.16L188.13,334.91z M161.64,358.32c0.49-1,0.09-2.08-0.83-2.55c-0.9-0.44-2.01-0.1-2.5,0.88
		c-0.48,0.97-0.08,2.06,0.83,2.52C160.05,359.61,161.15,359.3,161.64,358.32 M165.94,358.69c-1.33-0.66-1.33-1.01-0.69-2.82
		l-0.7-0.35l-3.38,6.77l0.7,0.35c1.07-1.61,1.36-1.81,2.69-1.16l11.85,5.89c1.33,0.66,1.33,1,0.68,2.83l0.72,0.34l3.36-6.77
		l-0.71-0.35c-1.05,1.6-1.35,1.81-2.67,1.15L165.94,358.69z M151.23,392.53c-1.38-0.57-1.4-0.91-0.9-2.77l-0.73-0.29l-2.85,6.99
		l0.73,0.31c0.94-1.68,1.21-1.9,2.58-1.34l12.25,5c1.38,0.56,1.4,0.92,0.91,2.77l0.73,0.3l2.85-7.01l-0.73-0.29
		c-0.94,1.67-1.2,1.91-2.58,1.35L151.23,392.53z M157.38,391.75l-3.39-7.58c-0.45-1.07-0.62-1.63-0.26-2.73l-0.72-0.31l-2.17,5.29
		l0.74,0.3c0.75-1.49,0.98-1.79,1.41-1.63c0.32,0.14,0.55,0.54,0.72,0.95l3.9,8.72l8.11-2.15c1.19-0.31,2.32-0.7,3.14-1.18
		l1.66-4.06l-0.73-0.3c-0.63,1.32-1.09,1.61-3.09,2.18L157.38,391.75z M147.14,430.44l0.46-1.54l6.49-2.27
		c1.3-0.44,2.27-0.82,2.98-1.4l1.27-4.26l-0.75-0.22c-0.46,1.36-1.2,1.95-3.12,2.66l-6.47,2.46c0.16-2.02-0.59-4.89-3.45-5.74
		c-2.89-0.86-5.57,0.8-6.84,5.08l-2.19,7.36l0.77,0.23c0.76-1.76,1-2.02,2.42-1.6l12.69,3.77c1.42,0.42,1.47,0.77,1.16,2.66
		l0.76,0.23l2.15-7.25l-0.76-0.23c-0.77,1.75-1,2.02-2.43,1.6L147.14,430.44z M138.4,426.3c0.85-2.88,2.97-3.71,5.22-3.05
		c2.69,0.8,3.87,2.59,3.02,5.42l-0.44,1.51l-8.22-2.45L138.4,426.3z M130.87,465.41c-1.44-0.31-1.53-0.66-1.35-2.6l-0.78-0.16
		l-1.61,7.42l0.77,0.16c0.64-1.81,0.86-2.12,2.31-1.8l9.28,2.03c4.46,0.96,7.11-1.31,8.05-5.64c0.8-3.7-0.61-7.09-4.99-8.05
		l-9.33-2.03c-1.45-0.31-1.57-0.69-1.38-2.6l-0.78-0.17l-1.28,5.87l0.79,0.17c0.66-2.11,0.96-2.41,2.41-2.11l8.86,1.93
		c3.8,0.83,4.94,3.18,4.26,6.34c-0.61,2.82-2.89,3.93-6.15,3.22L130.87,465.41z M126.32,458.86c0.92,0.21,1.89-0.37,2.09-1.33
		c0.21-0.97-0.42-1.89-1.35-2.1c-0.96-0.21-1.89,0.39-2.11,1.36C124.75,457.74,125.36,458.66,126.32,458.86 M125.22,463.9
		c0.93,0.2,1.89-0.36,2.1-1.32c0.21-0.97-0.42-1.93-1.35-2.13c-0.95-0.21-1.89,0.4-2.11,1.38
		C123.65,462.78,124.26,463.7,125.22,463.9 M122.91,506.07l5.71,1.05l0.09-0.71c-3.62-1.98-4.66-2.68-4.4-4.87l0.19-1.71l15.02,1.71
		c1.47,0.17,1.47,0.87,1.5,2.7l0.79,0.09l0.92-8.04l-0.79-0.09c-0.43,1.75-0.59,2.43-2.07,2.26l-15.01-1.71l0.2-1.69
		c0.25-2.18,1.43-2.64,5.39-3.78l0.08-0.68l-5.79-0.26L122.91,506.07z"/>
	<polygon class="st0" points="68.41,488.52 82.38,495.83 79.94,511.23 91.23,500.39 105.3,507.5 98.33,493.49 109.47,482.48 
		93.85,484.67 86.65,470.75 84,486.12 	"/>
	<polygon class="st0" points="87.52,399.02 100.01,408.65 94.91,423.4 107.93,414.68 120.56,424.13 116.11,409.11 129,400.22 
		113.24,399.65 108.59,384.69 103.29,399.37 	"/>
	<polygon class="st0" points="123.69,312.98 133.78,325.1 125.59,338.38 140.2,332.71 150.45,344.7 149.39,329.07 163.91,323.2 
		148.65,319.21 147.37,303.6 139,316.75 	"/>
	<polygon class="st0" points="175.83,236.89 183.41,250.71 172.85,262.19 188.27,259.41 196.06,273.13 197.99,257.58 213.36,254.58 
		199.16,247.76 200.86,232.19 190.15,243.51 	"/>
	<polygon class="st0" points="241.64,172.32 246.47,187.33 233.92,196.6 249.57,196.8 254.62,211.73 259.48,196.85 275.13,196.82 
		262.47,187.42 267.11,172.46 254.43,181.53 	"/>
	<polygon class="st0" points="318.71,121.6 320.57,137.25 306.48,143.95 321.81,147.14 323.9,162.77 331.5,149.1 346.88,152.06 
		336.26,140.41 343.69,126.61 329.5,133.1 	"/>
	<polygon class="st0" points="404.28,86.68 403.04,102.41 387.92,106.2 402.33,112.34 401.31,128.08 411.45,116.15 425.95,122.08 
		417.82,108.58 427.79,96.5 412.61,100.07 	"/>
	<polygon class="st0" points="495.17,68.97 490.82,84.13 475.25,84.83 488.13,93.72 484,108.93 496.31,99.28 509.34,107.97 
		504.07,93.12 516.25,83.27 500.67,83.75 	"/>
	<polygon class="st0" points="586.76,69.49 579.82,83.65 564.36,81.6 575.49,92.61 568.74,106.86 582.58,99.52 593.86,110.38 
		591.27,94.83 605,87.27 589.57,85.01 	"/>
	<polygon class="st0" points="677.51,87.35 667.9,99.85 653.15,94.79 661.89,107.79 652.46,120.43 667.46,115.97 676.37,128.83 
		676.92,113.08 691.87,108.4 677.19,103.12 	"/>
	<polygon class="st0" points="762.85,122.56 750.99,132.96 737.51,125.14 743.56,139.58 731.85,150.16 747.44,148.69 753.7,163.04 
		757.29,147.68 772.85,145.99 759.48,137.97 	"/>
	<polygon class="st0" points="839.6,173.61 825.98,181.56 814.24,171.31 817.42,186.65 803.93,194.8 819.51,196.31 822.91,211.61 
		829.36,197.21 844.97,198.51 833.36,188.1 	"/>
	<polygon class="st0" points="905.05,238.47 890.16,243.69 880.57,231.39 880.78,247.08 865.99,252.51 881.02,256.96 881.46,272.61 
		890.51,259.69 905.59,263.94 896.17,251.5 	"/>
	<polygon class="st0" points="956.78,314.81 941.19,317.08 934.12,303.17 931.33,318.59 915.76,321.08 929.64,328.33 927.08,343.79 
		938.45,332.85 952.44,339.9 945.57,325.9 	"/>
	<polygon class="st0" points="992.75,399.9 977,399.07 972.81,384.05 967.05,398.62 951.3,398.01 963.49,407.84 957.94,422.48 
		971.23,413.99 983.56,423.66 979.59,408.58 	"/>
	<polygon class="st0" points="1011.45,490.54 996.17,486.58 995.07,471.03 986.52,484.15 971.21,480.4 981.17,492.47 972.81,505.7 
		987.52,500.05 997.67,511.98 996.8,496.41 	"/>
	<path class="st1" d="M776.86,593.85c0,12.43-9.51,22.57-21.17,22.57H614.58v-21.08h139.1c3.21,0,5.76-2.69,5.76-6.12v-6.2
		c0-3.45-2.55-6.13-5.76-6.13h-139.1V409.14c0-12.48,9.48-22.65,21.16-22.65h14.41c11.66,0,21.08,10.17,21.08,22.65v117.58h-19.65
		V411.23c0-3.36-2.56-6.12-5.7-6.12h-5.9c-3.14,0-5.68,2.76-5.68,6.12V555.8h121.4c11.66,0,21.17,10.11,21.17,22.58V593.85z
		 M540.63,693.43c-29.15,0-54.12-19.37-64.2-46.73l-1.04-2.84h21.37l0.52,1.13c8.45,16.36,24.68,27.44,43.35,27.44
		c27.3,0,49.34-23.63,49.34-52.77c0-29.16-22.04-52.79-49.34-52.79c-18.98,0-35.5,11.52-43.8,28.42h80.06v21.01H471.72l0.14-2.18
		c2.62-38.19,32.45-68.25,68.77-68.25c38.13,0,69,33.04,69,73.79C609.63,660.39,578.76,693.43,540.63,693.43 M465.36,576.9H326.25
		c-3.15,0-5.68,2.68-5.68,6.13v6.2c0,3.44,2.53,6.12,5.68,6.12h139.11v21.08H324.3c-11.66,0-21.15-10.15-21.15-22.57v-15.47
		c0-12.47,9.5-22.58,21.15-22.58h121.4V411.23c0-3.36-2.55-6.12-5.76-6.12h-5.83c-3.13,0-5.75,2.76-5.75,6.12v115.49H408.7V409.14
		c0-12.48,9.49-22.65,21.16-22.65h14.42c11.66,0,21.08,10.17,21.08,22.65V576.9z M522.17,512.08h16.31v27.05h-16.31V512.08z
		 M544.74,512.08h16.3v27.05h-16.3V512.08z M539.97,199.46c-188.08,0-340.5,152.49-340.5,340.5c0,188.16,152.42,340.58,340.5,340.58
		c188.07,0,340.58-152.42,340.58-340.58C880.54,351.95,728.04,199.46,539.97,199.46"/>
</g>
</svg>
