<?xml version="1.0" encoding="utf-8"?>
<!-- Generator: Adobe Illustrator 26.0.1, SVG Export Plug-In . SVG Version: 6.00 Build 0)  -->
<svg version="1.1" id="katman_1" xmlns="http://www.w3.org/2000/svg" xmlns:xlink="http://www.w3.org/1999/xlink" x="0px" y="0px"
	 viewBox="0 0 1080 1080" style="enable-background:new 0 0 1080 1080;" xml:space="preserve">
<style type="text/css">
	.st0{fill-rule:evenodd;clip-rule:evenodd;}
</style>
<g>
	<path d="M-1009.23-82.04h659.1c6.14,0,11.12,4.98,11.12,11.12v885.65c0,6.14-4.98,11.12-11.12,11.12h-659.1
		c-6.14,0-11.12-4.98-11.12-11.12V-70.93C-1020.35-77.07-1015.37-82.04-1009.23-82.04L-1009.23-82.04L-1009.23-82.04z
		 M-361.25-59.81h-636.86v863.42h636.86V-59.81L-361.25-59.81z"/>
	<path d="M-939.86,11.18h520.34c6.14,0,11.12,4.98,11.12,11.12v699.2c0,6.14-4.98,11.12-11.12,11.12h-520.34
		c-6.14,0-11.12-4.98-11.12-11.12V22.3C-950.98,16.16-945.99,11.18-939.86,11.18L-939.86,11.18L-939.86,11.18z M-430.63,33.42
		h-498.11v676.97h498.11V33.42L-430.63,33.42z"/>
	<path d="M-978.52-72.87c0,6.14,4.98,11.12,11.12,11.12c6.14,0,11.12-4.98,11.12-11.12v-77.69c0-6.14-4.98-11.12-11.12-11.12
		c-6.14,0-11.12,4.98-11.12,11.12V-72.87L-978.52-72.87z"/>
	<path d="M-906.59-72.87c0,6.14,4.98,11.12,11.12,11.12s11.12-4.98,11.12-11.12v-77.69c0-6.14-4.98-11.12-11.12-11.12
		s-11.12,4.98-11.12,11.12V-72.87L-906.59-72.87z"/>
	<path d="M-834.66-72.87c0,6.14,4.98,11.12,11.12,11.12c6.14,0,11.12-4.98,11.12-11.12v-77.69c0-6.14-4.98-11.12-11.12-11.12
		c-6.14,0-11.12,4.98-11.12,11.12V-72.87L-834.66-72.87z"/>
	<path d="M-762.73-72.87c0,6.14,4.98,11.12,11.12,11.12c6.14,0,11.12-4.98,11.12-11.12v-77.69c0-6.14-4.98-11.12-11.12-11.12
		c-6.14,0-11.12,4.98-11.12,11.12V-72.87L-762.73-72.87z"/>
	<path d="M-690.8-72.87c0,6.14,4.98,11.12,11.12,11.12c6.14,0,11.12-4.98,11.12-11.12v-77.69c0-6.14-4.98-11.12-11.12-11.12
		c-6.14,0-11.12,4.98-11.12,11.12V-72.87L-690.8-72.87z"/>
	<path d="M-618.87-72.87c0,6.14,4.98,11.12,11.12,11.12c6.14,0,11.12-4.98,11.12-11.12v-77.69c0-6.14-4.98-11.12-11.12-11.12
		c-6.14,0-11.12,4.98-11.12,11.12V-72.87L-618.87-72.87z"/>
	<path d="M-546.95-72.87c0,6.14,4.98,11.12,11.12,11.12c6.14,0,11.12-4.98,11.12-11.12v-77.69c0-6.14-4.98-11.12-11.12-11.12
		c-6.14,0-11.12,4.98-11.12,11.12V-72.87L-546.95-72.87z"/>
	<path d="M-475.02-72.87c0,6.14,4.98,11.12,11.12,11.12c6.14,0,11.12-4.98,11.12-11.12v-77.69c0-6.14-4.98-11.12-11.12-11.12
		c-6.14,0-11.12,4.98-11.12,11.12L-475.02-72.87L-475.02-72.87z"/>
	<path d="M-403.09-72.87c0,6.14,4.98,11.12,11.12,11.12c6.14,0,11.12-4.98,11.12-11.12v-77.69c0-6.14-4.98-11.12-11.12-11.12
		c-6.14,0-11.12,4.98-11.12,11.12V-72.87L-403.09-72.87z"/>
	<path d="M-956.28,816.67c0-6.14-4.98-11.12-11.12-11.12c-6.14,0-11.12,4.98-11.12,11.12v77.69c0,6.14,4.98,11.12,11.12,11.12
		c6.14,0,11.12-4.98,11.12-11.12V816.67L-956.28,816.67z"/>
	<path d="M-884.36,816.67c0-6.14-4.98-11.12-11.12-11.12s-11.12,4.98-11.12,11.12v77.69c0,6.14,4.98,11.12,11.12,11.12
		s11.12-4.98,11.12-11.12V816.67L-884.36,816.67z"/>
	<path d="M-812.43,816.67c0-6.14-4.98-11.12-11.12-11.12c-6.14,0-11.12,4.98-11.12,11.12v77.69c0,6.14,4.98,11.12,11.12,11.12
		c6.14,0,11.12-4.98,11.12-11.12V816.67L-812.43,816.67z"/>
	<path d="M-740.5,816.67c0-6.14-4.98-11.12-11.12-11.12c-6.14,0-11.12,4.98-11.12,11.12v77.69c0,6.14,4.98,11.12,11.12,11.12
		c6.14,0,11.12-4.98,11.12-11.12V816.67L-740.5,816.67z"/>
	<path d="M-668.57,816.67c0-6.14-4.98-11.12-11.12-11.12c-6.14,0-11.12,4.98-11.12,11.12v77.69c0,6.14,4.98,11.12,11.12,11.12
		c6.14,0,11.12-4.98,11.12-11.12V816.67L-668.57,816.67z"/>
	<path d="M-596.64,816.67c0-6.14-4.98-11.12-11.12-11.12c-6.14,0-11.12,4.98-11.12,11.12v77.69c0,6.14,4.98,11.12,11.12,11.12
		c6.14,0,11.12-4.98,11.12-11.12V816.67L-596.64,816.67z"/>
	<path d="M-524.71,816.67c0-6.14-4.98-11.12-11.12-11.12c-6.14,0-11.12,4.98-11.12,11.12v77.69c0,6.14,4.98,11.12,11.12,11.12
		c6.14,0,11.12-4.98,11.12-11.12V816.67L-524.71,816.67z"/>
	<path d="M-452.79,816.67c0-6.14-4.98-11.12-11.12-11.12c-6.14,0-11.12,4.98-11.12,11.12v77.69c0,6.14,4.98,11.12,11.12,11.12
		c6.14,0,11.12-4.98,11.12-11.12V816.67L-452.79,816.67z"/>
	<path d="M-380.86,816.67c0-6.14-4.98-11.12-11.12-11.12c-6.14,0-11.12,4.98-11.12,11.12v77.69c0,6.14,4.98,11.12,11.12,11.12
		c6.14,0,11.12-4.98,11.12-11.12V816.67L-380.86,816.67z"/>
	<path d="M-667.44,390.12c-0.26-6.12-5.43-10.86-11.55-10.6c-6.11,0.26-10.86,5.43-10.6,11.55c0.31,6.68-11.17,14.14-23.28,22
		c-21.41,13.89-44.17,28.68-37.18,57.69l-0.04,0.01c0.24,0.99,0.61,1.92,1.07,2.77l14.36,33.21c2.42,5.61,8.94,8.2,14.55,5.77
		c5.61-2.42,8.2-8.94,5.77-14.54l-14.34-33.16c-2.58-13.38,13.11-23.57,27.87-33.15C-683.21,420.24-666.54,409.42-667.44,390.12
		L-667.44,390.12z"/>
	<path d="M-667.4,391.08c0.26-6.11-4.48-11.28-10.6-11.55c-6.11-0.26-11.28,4.48-11.55,10.6c-0.9,19.3,15.78,30.12,33.36,41.54
		c14.76,9.58,30.45,19.77,27.87,33.15l-14.34,33.16c-2.42,5.61,0.16,12.12,5.77,14.54c5.61,2.42,12.12-0.16,14.55-5.77l14.36-33.21
		c0.47-0.85,0.84-1.78,1.07-2.77l-0.04-0.01c6.99-29.01-15.78-43.79-37.18-57.69C-656.22,405.21-667.71,397.76-667.4,391.08
		L-667.4,391.08z"/>
	<path d="M-585.24,519.37h-186.5v32.07h186.5V519.37L-585.24,519.37L-585.24,519.37z M-782.86,497.14h208.74
		c6.14,0,11.12,4.98,11.12,11.12v54.3c0,6.14-4.98,11.12-11.12,11.12h-208.74c-6.14,0-11.12-4.98-11.12-11.12v-54.3
		C-793.97,502.12-789,497.14-782.86,497.14L-782.86,497.14z"/>
	<path d="M-804.23,410.6v151.97c0,6.14-4.98,11.12-11.12,11.12h-47.67c-6.14,0-11.12-4.98-11.12-11.12V409.25
		c-6.37-4.81-11.74-10.89-15.73-17.88c-4.92-8.6-7.72-18.53-7.72-29.07c0-6.14,4.98-11.12,11.12-11.12c0.23,0,0.47,0.01,0.7,0.02
		l93.57-2.12v-0.04c6.14-0.14,11.23,4.72,11.37,10.86c0,0.23,0,0.46,0,0.69c0.33,10.76-2,21.63-7.01,31.12
		C-791.72,399.04-797.18,405.56-804.23,410.6L-804.23,410.6L-804.23,410.6z M-826.46,551.45V404.69c-0.07-4.04,2.07-7.97,5.88-10
		l5.24,9.8l-5.21-9.77c5.8-3.09,10.16-7.81,13.08-13.34c1.63-3.09,2.81-6.42,3.56-9.88l-69.84,1.59c0.79,2.59,1.86,5.05,3.17,7.34
		c3.05,5.34,7.42,9.84,12.69,13.07c3.56,1.86,5.99,5.58,5.99,9.87v148.08L-826.46,551.45L-826.46,551.45z"/>
	<path d="M-813.1,300.33v60.12c0,6.14-4.98,11.12-11.12,11.12h-29.93c-6.14,0-11.12-4.98-11.12-11.12v-60.76
		c-3.18-1.99-5.93-4.35-8.16-6.98c-4.18-4.94-6.57-10.8-6.57-17.17c0-6.14,4.98-11.12,11.12-11.12c0.27,0,0.54,0.01,0.8,0.03
		l58.37-0.9v-0.04c6.14-0.1,11.19,4.81,11.28,10.94v0.31c0.22,6.24-1.77,12.48-5.98,17.87
		C-806.65,295.53-809.56,298.15-813.1,300.33L-813.1,300.33L-813.1,300.33z M-835.33,349.33v-55.69c-0.06-2.8,0.96-5.51,2.79-7.59
		l-12.73,0.19c1.41,1.86,2.25,4.18,2.25,6.7v56.38L-835.33,349.33L-835.33,349.33L-835.33,349.33z M-826.89,285.97h-0.01l2.69,7.46
		L-826.89,285.97L-826.89,285.97z"/>
	<path d="M-868.87,271.71c-0.05,6.11,4.87,11.11,10.99,11.16c6.11,0.05,11.11-4.87,11.16-10.99l0.48-41.91l7.07-18.18l7.05,18.13
		l0.49,41.99c0.07,6.11,5.09,11.01,11.2,10.94c6.11-0.07,11.01-5.09,10.94-11.2l-0.51-43.03c0.13-1.61-0.1-3.28-0.73-4.89
		l-0.03,0.01l-17.78-45.72c-0.95-3.17-3.3-5.88-6.62-7.17c-5.72-2.22-12.16,0.61-14.39,6.33l10.36,4.03l-10.33-3.99l-17.78,45.71
		c-0.7,1.44-1.1,3.05-1.12,4.75l11.12,0.13l-11.07-0.09L-868.87,271.71L-868.87,271.71z"/>
	<path d="M-485.24,410.6v151.97c0,6.14-4.98,11.12-11.12,11.12h-47.67c-6.14,0-11.12-4.98-11.12-11.12V409.25
		c-6.37-4.81-11.74-10.89-15.73-17.88c-4.92-8.6-7.72-18.53-7.72-29.07c0-6.14,4.98-11.12,11.12-11.12c0.23,0,0.47,0.01,0.7,0.02
		l93.57-2.12v-0.04c6.14-0.14,11.22,4.72,11.36,10.86c0,0.23,0,0.46,0,0.69c0.33,10.76-2,21.63-7.01,31.12
		C-472.73,399.04-478.18,405.56-485.24,410.6L-485.24,410.6L-485.24,410.6z M-507.47,551.45v-146.9c-0.02-3.99,2.12-7.86,5.88-9.87
		l5.23,9.8l-5.21-9.77c5.8-3.09,10.16-7.81,13.08-13.34c1.63-3.09,2.81-6.42,3.56-9.88l-69.84,1.59c0.79,2.59,1.86,5.05,3.17,7.34
		c3.05,5.34,7.43,9.84,12.7,13.07c3.56,1.86,5.99,5.58,5.99,9.87v148.08L-507.47,551.45L-507.47,551.45z"/>
	<path d="M-494.11,300.33v60.12c0,6.14-4.98,11.12-11.12,11.12h-29.93c-6.14,0-11.12-4.98-11.12-11.12v-60.76
		c-3.18-1.99-5.93-4.34-8.15-6.98c-4.18-4.94-6.57-10.8-6.57-17.17c0-6.14,4.98-11.12,11.12-11.12c0.27,0,0.53,0.01,0.8,0.03
		l58.37-0.9v-0.04c6.14-0.1,11.19,4.81,11.28,10.94v0.31c0.22,6.24-1.77,12.48-5.97,17.87
		C-487.66,295.53-490.57,298.15-494.11,300.33L-494.11,300.33L-494.11,300.33z M-516.35,349.33v-55.69c-0.05-2.8,0.96-5.51,2.8-7.59
		l-12.73,0.19c1.41,1.86,2.25,4.18,2.25,6.7v56.38L-516.35,349.33L-516.35,349.33L-516.35,349.33z M-507.9,285.97h-0.02l2.69,7.46
		L-507.9,285.97L-507.9,285.97z"/>
	<path d="M-549.88,271.71c-0.05,6.11,4.87,11.11,10.99,11.16c6.11,0.05,11.11-4.87,11.16-10.99l0.48-41.91l7.07-18.18l7.05,18.14
		l0.49,41.95c0.05,6.11,5.05,11.03,11.16,10.99c6.11-0.05,11.03-5.05,10.99-11.16l-0.51-43.07c0.13-1.61-0.1-3.28-0.72-4.89
		l-0.03,0.01l-17.78-45.72c-0.95-3.17-3.3-5.88-6.62-7.17c-5.72-2.22-12.16,0.61-14.39,6.33l10.36,4.03l-10.34-4l-17.78,45.71
		c-0.71,1.44-1.1,3.05-1.12,4.75l11.12,0.13l-11.07-0.09L-549.88,271.71L-549.88,271.71z"/>
</g>
<path class="st0" d="M895.49,62.62h-60.94V11.84c0-5.61-4.55-10.16-10.16-10.16c-5.61,0-10.16,4.55-10.16,10.16v50.78H753.3V11.84
	c0-5.61-4.55-10.16-10.16-10.16c-5.61,0-10.16,4.55-10.16,10.16v50.78h-60.94V11.84c0-5.61-4.55-10.16-10.16-10.16
	s-10.16,4.55-10.16,10.16v50.78h-60.94V11.84c0-5.61-4.55-10.16-10.16-10.16s-10.16,4.55-10.16,10.16v50.78h-60.94V11.84
	c0-5.61-4.55-10.16-10.16-10.16s-10.16,4.55-10.16,10.16v50.78h-60.94V11.84c0-5.61-4.55-10.16-10.16-10.16
	c-5.61,0-10.16,4.55-10.16,10.16v50.78h-60.94V11.84c0-5.61-4.55-10.16-10.16-10.16S326.7,6.23,326.7,11.84v50.78h-60.94V11.84
	c0-5.61-4.55-10.16-10.16-10.16c-5.61,0-10.16,4.55-10.16,10.16v50.78h-60.94V11.84c0-5.61-4.55-10.16-10.16-10.16
	s-10.16,4.55-10.16,10.16v1056.32c0,5.61,4.55,10.16,10.16,10.16s10.16-4.55,10.16-10.16v-50.78h60.94v50.78
	c0,5.61,4.55,10.16,10.16,10.16c5.61,0,10.16-4.55,10.16-10.16v-50.78h60.94v50.78c0,5.61,4.55,10.16,10.16,10.16
	s10.16-4.55,10.16-10.16v-50.78h60.94v50.78c0,5.61,4.55,10.16,10.16,10.16c5.61,0,10.16-4.55,10.16-10.16v-50.78h60.94v50.78
	c0,5.61,4.55,10.16,10.16,10.16s10.16-4.55,10.16-10.16v-50.78h60.94v50.78c0,5.61,4.55,10.16,10.16,10.16s10.16-4.55,10.16-10.16
	v-50.78h60.94v50.78c0,5.61,4.55,10.16,10.16,10.16s10.16-4.55,10.16-10.16v-50.78h60.94v50.78c0,5.61,4.55,10.16,10.16,10.16
	c5.61,0,10.16-4.55,10.16-10.16v-50.78h60.94v50.78c0,5.61,4.55,10.16,10.16,10.16c5.61,0,10.16-4.55,10.16-10.16v-50.78h60.94
	v50.78c0,5.61,4.55,10.16,10.16,10.16s10.16-4.55,10.16-10.16V11.84c0-5.61-4.55-10.16-10.16-10.16s-10.16,4.55-10.16,10.16V62.62z
	 M854.86,133.72c0-5.61-4.55-10.16-10.16-10.16H235.29c-5.61,0-10.16,4.55-10.16,10.16v812.55c0,5.61,4.55,10.16,10.16,10.16h609.42
	c5.61,0,10.16-4.55,10.16-10.16V133.72z M834.55,143.88v792.24h-589.1V143.88H834.55z M753.3,438.43c0-0.4-0.02-0.8-0.07-1.2
	c-7.52-63.38-40.17-96.81-81.66-124.53c-38.64-25.82-85.38-46.33-124.45-84.66c-2-1.96-4.72-3.01-7.51-2.9
	c-2.8,0.11-5.43,1.37-7.26,3.48c-31.92,36.64-78.5,57.96-118.65,84.49c-43.34,28.64-79.5,62.97-86.91,124.1
	c-0.05,0.41-0.07,0.81-0.07,1.22v406.28c0,5.61,4.55,10.16,10.16,10.16h406.28c5.61,0,10.16-4.55,10.16-10.16V438.43z
	 M732.98,439.05v395.5H347.02V439.06c6.75-53.89,39.54-83.68,77.87-109.01c38.74-25.6,82.97-46.9,115.61-80.33
	c38.38,34.81,82.65,55.07,119.78,79.88c36.59,24.45,65.86,53.63,72.69,109.3L732.98,439.05"/>
</svg>
